REM DIRINDEX 1\2\4\18,1\2\4\19,1\2\5\20,1\2\5\21,1\2\6\22,1\2\7\23,1\2\8\24,1\2\8\25,1\2\9\26,1\2\10\27,1\3\11\28,1\3\11\29,1\3\11\30,1\3\11\31,1\3\12\32,1\3\12\33,1\3\12\34,1\3\12\35,1\3\13\36,1\3\13\37,1\3\14\38,1\3\14\39,1\3\15\40,1\3\15\41,1\3\15\42,1\3\16\43,1\3\16\44,1\3\17\45,1\3\17\46
REM DIRNAME folder01,folder02,folder03,folder04,folder05,folder06,folder07,folder08,folder09,folder10,folder11,folder12,folder13,folder14,folder15,folder16,folder17,folder18,folder19,folder20,folder21,folder22,folder23,folder24,folder25,folder26,folder27,folder28,folder29,folder30,folder31,folder32,folder33,folder34,folder35,folder36,folder37,folder38,folder39,folder40,folder41,folder42,folder43,folder44,folder45,folder46
TITLE ""
FILE "09.mp3" MP3
  TRACK 01 AUDIO
    TITLE "0:"
    INDEX 01 00:00:00
  TRACK 02 AUDIO
    TITLE "28:cjc024_5660"
    INDEX 01 00:00:13
  TRACK 03 AUDIO
    TITLE "0:"
    INDEX 01 00:01:28
  TRACK 04 AUDIO
    TITLE "29:cjc024_5661"
    INDEX 01 00:01:64
  TRACK 05 AUDIO
    TITLE "0:"
    INDEX 01 00:03:41
  TRACK 06 AUDIO
    TITLE "30:cjc024_5662"
    INDEX 01 00:04:07
  TRACK 07 AUDIO
    TITLE "0:"
    INDEX 01 00:05:52
  TRACK 08 AUDIO
    TITLE "31:cjc024_5663"
    INDEX 01 00:06:04
  TRACK 09 AUDIO
    TITLE "0:"
    INDEX 01 00:07:49
  TRACK 10 AUDIO
    TITLE "28:cjc024_5664"
    INDEX 01 00:08:50
  TRACK 11 AUDIO
    TITLE "0:"
    INDEX 01 00:09:61
  TRACK 12 AUDIO
    TITLE "29:cjc024_5665"
    INDEX 01 00:10:29
  TRACK 13 AUDIO
    TITLE "0:"
    INDEX 01 00:11:68
  TRACK 14 AUDIO
    TITLE "30:cjc024_5666"
    INDEX 01 00:12:30
  TRACK 15 AUDIO
    TITLE "0:"
    INDEX 01 00:13:71
  TRACK 16 AUDIO
    TITLE "31:cjc024_5667"
    INDEX 01 00:14:31
  TRACK 17 AUDIO
    TITLE "0:"
    INDEX 01 00:15:72
  TRACK 18 AUDIO
    TITLE "28:cjc024_5668"
    INDEX 01 00:17:06
  TRACK 19 AUDIO
    TITLE "0:"
    INDEX 01 00:18:15
  TRACK 20 AUDIO
    TITLE "29:cjc024_5669"
    INDEX 01 00:18:58
  TRACK 21 AUDIO
    TITLE "0:"
    INDEX 01 00:21:13
  TRACK 22 AUDIO
    TITLE "30:cjc024_5670"
    INDEX 01 00:21:57
  TRACK 23 AUDIO
    TITLE "0:"
    INDEX 01 00:23:57
  TRACK 24 AUDIO
    TITLE "31:cjc024_5671"
    INDEX 01 00:24:10
  TRACK 25 AUDIO
    TITLE "0:"
    INDEX 01 00:26:13
  TRACK 26 AUDIO
    TITLE "28:cjc024_5672"
    INDEX 01 00:27:16
  TRACK 27 AUDIO
    TITLE "0:"
    INDEX 01 00:28:33
  TRACK 28 AUDIO
    TITLE "29:cjc024_5673"
    INDEX 01 00:28:68
  TRACK 29 AUDIO
    TITLE "0:"
    INDEX 01 00:30:69
  TRACK 30 AUDIO
    TITLE "30:cjc024_5674"
    INDEX 01 00:31:35
  TRACK 31 AUDIO
    TITLE "0:"
    INDEX 01 00:33:52
  TRACK 32 AUDIO
    TITLE "31:cjc024_5675"
    INDEX 01 00:34:00
  TRACK 33 AUDIO
    TITLE "0:"
    INDEX 01 00:36:17
  TRACK 34 AUDIO
    TITLE "28:cjc024_5676"
    INDEX 01 00:37:14
  TRACK 35 AUDIO
    TITLE "0:"
    INDEX 01 00:38:12
  TRACK 36 AUDIO
    TITLE "29:cjc024_5677"
    INDEX 01 00:38:49
  TRACK 37 AUDIO
    TITLE "0:"
    INDEX 01 00:41:00
  TRACK 38 AUDIO
    TITLE "30:cjc024_5678"
    INDEX 01 00:41:44
  TRACK 39 AUDIO
    TITLE "0:"
    INDEX 01 00:43:58
  TRACK 40 AUDIO
    TITLE "31:cjc024_5679"
    INDEX 01 00:44:05
  TRACK 41 AUDIO
    TITLE "0:"
    INDEX 01 00:46:21
  TRACK 42 AUDIO
    TITLE "28:cjc024_5680"
    INDEX 01 00:47:19
  TRACK 43 AUDIO
    TITLE "0:"
    INDEX 01 00:48:18
  TRACK 44 AUDIO
    TITLE "29:cjc024_5681"
    INDEX 01 00:48:57
  TRACK 45 AUDIO
    TITLE "0:"
    INDEX 01 00:52:59
  TRACK 46 AUDIO
    TITLE "30:cjc024_5682"
    INDEX 01 00:53:29
  TRACK 47 AUDIO
    TITLE "0:"
    INDEX 01 00:56:57
  TRACK 48 AUDIO
    TITLE "31:cjc024_5683"
    INDEX 01 00:57:11
  TRACK 49 AUDIO
    TITLE "0:"
    INDEX 01 01:00:39
  TRACK 50 AUDIO
    TITLE "28:cjc024_5684"
    INDEX 01 01:01:42
  TRACK 51 AUDIO
    TITLE "0:"
    INDEX 01 01:02:55
  TRACK 52 AUDIO
    TITLE "29:cjc024_5685"
    INDEX 01 01:03:27
  TRACK 53 AUDIO
    TITLE "0:"
    INDEX 01 01:06:73
  TRACK 54 AUDIO
    TITLE "30:cjc024_5686"
    INDEX 01 01:07:43
  TRACK 55 AUDIO
    TITLE "0:"
    INDEX 01 01:10:22
  TRACK 56 AUDIO
    TITLE "31:cjc024_5687"
    INDEX 01 01:10:47
  TRACK 57 AUDIO
    TITLE "0:"
    INDEX 01 01:13:28
  TRACK 58 AUDIO
    TITLE "28:cjc024_5688"
    INDEX 01 01:14:27
  TRACK 59 AUDIO
    TITLE "0:"
    INDEX 01 01:15:44
  TRACK 60 AUDIO
    TITLE "29:cjc024_5689"
    INDEX 01 01:16:16
  TRACK 61 AUDIO
    TITLE "0:"
    INDEX 01 01:19:19
  TRACK 62 AUDIO
    TITLE "30:cjc024_5690"
    INDEX 01 01:19:56
  TRACK 63 AUDIO
    TITLE "0:"
    INDEX 01 01:22:29
  TRACK 64 AUDIO
    TITLE "31:cjc024_5691"
    INDEX 01 01:22:58
  TRACK 65 AUDIO
    TITLE "0:"
    INDEX 01 01:25:31
  TRACK 66 AUDIO
    TITLE "28:cjc024_5692"
    INDEX 01 01:26:36
  TRACK 67 AUDIO
    TITLE "0:"
    INDEX 01 01:27:30
  TRACK 68 AUDIO
    TITLE "29:cjc024_5693"
    INDEX 01 01:27:69
  TRACK 69 AUDIO
    TITLE "0:"
    INDEX 01 01:31:16
  TRACK 70 AUDIO
    TITLE "30:cjc024_5694"
    INDEX 01 01:31:55
  TRACK 71 AUDIO
    TITLE "0:"
    INDEX 01 01:33:72
  TRACK 72 AUDIO
    TITLE "31:cjc024_5695"
    INDEX 01 01:34:22
  TRACK 73 AUDIO
    TITLE "0:"
    INDEX 01 01:36:39
  TRACK 74 AUDIO
    TITLE "28:cjc024_5696"
    INDEX 01 01:37:38
  TRACK 75 AUDIO
    TITLE "0:"
    INDEX 01 01:38:63
  TRACK 76 AUDIO
    TITLE "29:cjc024_5697"
    INDEX 01 01:39:25
  TRACK 77 AUDIO
    TITLE "0:"
    INDEX 01 01:41:32
  TRACK 78 AUDIO
    TITLE "30:cjc024_5698"
    INDEX 01 01:41:71
  TRACK 79 AUDIO
    TITLE "0:"
    INDEX 01 01:44:05
  TRACK 80 AUDIO
    TITLE "31:cjc024_5699"
    INDEX 01 01:44:30
  TRACK 81 AUDIO
    TITLE "0:"
    INDEX 01 01:46:39
  TRACK 82 AUDIO
    TITLE "28:cjc024_5700"
    INDEX 01 01:47:40
  TRACK 83 AUDIO
    TITLE "0:"
    INDEX 01 01:48:48
  TRACK 84 AUDIO
    TITLE "29:cjc024_5701"
    INDEX 01 01:49:10
  TRACK 85 AUDIO
    TITLE "0:"
    INDEX 01 01:51:27
  TRACK 86 AUDIO
    TITLE "30:cjc024_5702"
    INDEX 01 01:51:66
  TRACK 87 AUDIO
    TITLE "0:"
    INDEX 01 01:53:72
  TRACK 88 AUDIO
    TITLE "31:cjc024_5703"
    INDEX 01 01:54:25
  TRACK 89 AUDIO
    TITLE "0:"
    INDEX 01 01:56:34
  TRACK 90 AUDIO
    TITLE "28:cjc024_5704"
    INDEX 01 01:57:35
  TRACK 91 AUDIO
    TITLE "0:"
    INDEX 01 01:58:36
  TRACK 92 AUDIO
    TITLE "29:cjc024_5705"
    INDEX 01 01:59:03
  TRACK 93 AUDIO
    TITLE "0:"
    INDEX 01 02:00:47
  TRACK 94 AUDIO
    TITLE "30:cjc024_5706"
    INDEX 01 02:01:13
  TRACK 95 AUDIO
    TITLE "0:"
    INDEX 01 02:03:00
  TRACK 96 AUDIO
    TITLE "31:cjc024_5707"
    INDEX 01 02:03:26
  TRACK 97 AUDIO
    TITLE "0:"
    INDEX 01 02:05:13
  TRACK 98 AUDIO
    TITLE "28:cjc024_5708"
    INDEX 01 02:06:12
  TRACK 99 AUDIO
    TITLE "0:"
    INDEX 01 02:07:12
  TRACK 100 AUDIO
    TITLE "29:cjc024_5709"
    INDEX 01 02:07:51
  TRACK 101 AUDIO
    TITLE "0:"
    INDEX 01 02:09:21
  TRACK 102 AUDIO
    TITLE "30:cjc024_5710"
    INDEX 01 02:09:66
  TRACK 103 AUDIO
    TITLE "0:"
    INDEX 01 02:11:29
  TRACK 104 AUDIO
    TITLE "31:cjc024_5711"
    INDEX 01 02:11:53
  TRACK 105 AUDIO
    TITLE "0:"
    INDEX 01 02:13:18
  TRACK 106 AUDIO
    TITLE "28:cjc024_5712"
    INDEX 01 02:14:20
  TRACK 107 AUDIO
    TITLE "0:"
    INDEX 01 02:15:39
  TRACK 108 AUDIO
    TITLE "29:cjc024_5713"
    INDEX 01 02:16:07
  TRACK 109 AUDIO
    TITLE "0:"
    INDEX 01 02:17:65
  TRACK 110 AUDIO
    TITLE "30:cjc024_5714"
    INDEX 01 02:18:33
  TRACK 111 AUDIO
    TITLE "0:"
    INDEX 01 02:20:16
  TRACK 112 AUDIO
    TITLE "31:cjc024_5715"
    INDEX 01 02:20:42
  TRACK 113 AUDIO
    TITLE "0:"
    INDEX 01 02:22:27
  TRACK 114 AUDIO
    TITLE "28:cjc024_5716"
    INDEX 01 02:23:28
  TRACK 115 AUDIO
    TITLE "0:"
    INDEX 01 02:24:46
  TRACK 116 AUDIO
    TITLE "29:cjc024_5717"
    INDEX 01 02:25:06
  TRACK 117 AUDIO
    TITLE "0:"
    INDEX 01 02:27:14
  TRACK 118 AUDIO
    TITLE "30:cjc024_5718"
    INDEX 01 02:27:60
  TRACK 119 AUDIO
    TITLE "0:"
    INDEX 01 02:29:41
  TRACK 120 AUDIO
    TITLE "31:cjc024_5719"
    INDEX 01 02:29:66
  TRACK 121 AUDIO
    TITLE "0:"
    INDEX 01 02:31:50
  TRACK 122 AUDIO
    TITLE "28:cjc024_5720"
    INDEX 01 02:32:49
  TRACK 123 AUDIO
    TITLE "0:"
    INDEX 01 02:33:50
  TRACK 124 AUDIO
    TITLE "29:cjc024_5721"
    INDEX 01 02:34:15
  TRACK 125 AUDIO
    TITLE "0:"
    INDEX 01 02:36:53
  TRACK 126 AUDIO
    TITLE "30:cjc024_5722"
    INDEX 01 02:37:17
  TRACK 127 AUDIO
    TITLE "0:"
    INDEX 01 02:39:24
  TRACK 128 AUDIO
    TITLE "31:cjc024_5723"
    INDEX 01 02:39:45
  TRACK 129 AUDIO
    TITLE "0:"
    INDEX 01 02:41:50
  TRACK 130 AUDIO
    TITLE "28:cjc024_5724"
    INDEX 01 02:42:47
  TRACK 131 AUDIO
    TITLE "0:"
    INDEX 01 02:43:66
  TRACK 132 AUDIO
    TITLE "29:cjc024_5725"
    INDEX 01 02:44:35
  TRACK 133 AUDIO
    TITLE "0:"
    INDEX 01 02:46:43
  TRACK 134 AUDIO
    TITLE "30:cjc024_5726"
    INDEX 01 02:47:05
  TRACK 135 AUDIO
    TITLE "0:"
    INDEX 01 02:48:72
  TRACK 136 AUDIO
    TITLE "31:cjc024_5727"
    INDEX 01 02:49:24
  TRACK 137 AUDIO
    TITLE "0:"
    INDEX 01 02:51:15
  TRACK 138 AUDIO
    TITLE "28:cjc024_5728"
    INDEX 01 02:52:16
  TRACK 139 AUDIO
    TITLE "0:"
    INDEX 01 02:53:32
  TRACK 140 AUDIO
    TITLE "29:cjc024_5729"
    INDEX 01 02:53:69
  TRACK 141 AUDIO
    TITLE "0:"
    INDEX 01 02:58:01
  TRACK 142 AUDIO
    TITLE "30:cjc024_5730"
    INDEX 01 02:58:42
  TRACK 143 AUDIO
    TITLE "0:"
    INDEX 01 03:02:07
  TRACK 144 AUDIO
    TITLE "31:cjc024_5731"
    INDEX 01 03:02:32
  TRACK 145 AUDIO
    TITLE "0:"
    INDEX 01 03:05:72
  TRACK 146 AUDIO
    TITLE "28:cjc024_5732"
    INDEX 01 03:06:73
  TRACK 147 AUDIO
    TITLE "0:"
    INDEX 01 03:08:25
  TRACK 148 AUDIO
    TITLE "29:cjc024_5733"
    INDEX 01 03:08:62
  TRACK 149 AUDIO
    TITLE "0:"
    INDEX 01 03:12:68
  TRACK 150 AUDIO
    TITLE "30:cjc024_5734"
    INDEX 01 03:13:34
  TRACK 151 AUDIO
    TITLE "0:"
    INDEX 01 03:16:50
  TRACK 152 AUDIO
    TITLE "31:cjc024_5735"
    INDEX 01 03:17:01
  TRACK 153 AUDIO
    TITLE "0:"
    INDEX 01 03:20:19
  TRACK 154 AUDIO
    TITLE "28:cjc024_5736"
    INDEX 01 03:21:18
  TRACK 155 AUDIO
    TITLE "0:"
    INDEX 01 03:22:41
  TRACK 156 AUDIO
    TITLE "29:cjc024_5737"
    INDEX 01 03:23:03
  TRACK 157 AUDIO
    TITLE "0:"
    INDEX 01 03:26:37
  TRACK 158 AUDIO
    TITLE "30:cjc024_5738"
    INDEX 01 03:27:05
  TRACK 159 AUDIO
    TITLE "0:"
    INDEX 01 03:30:17
  TRACK 160 AUDIO
    TITLE "31:cjc024_5739"
    INDEX 01 03:30:46
  TRACK 161 AUDIO
    TITLE "0:"
    INDEX 01 03:33:57
  TRACK 162 AUDIO
    TITLE "28:cjc024_5740"
    INDEX 01 03:34:60
  TRACK 163 AUDIO
    TITLE "0:"
    INDEX 01 03:36:04
  TRACK 164 AUDIO
    TITLE "29:cjc024_5741"
    INDEX 01 03:36:37
  TRACK 165 AUDIO
    TITLE "0:"
    INDEX 01 03:38:58
  TRACK 166 AUDIO
    TITLE "30:cjc024_5742"
    INDEX 01 03:39:16
  TRACK 167 AUDIO
    TITLE "0:"
    INDEX 01 03:41:46
  TRACK 168 AUDIO
    TITLE "31:cjc024_5743"
    INDEX 01 03:41:66
  TRACK 169 AUDIO
    TITLE "0:"
    INDEX 01 03:44:23
  TRACK 170 AUDIO
    TITLE "28:cjc024_5744"
    INDEX 01 03:45:21
  TRACK 171 AUDIO
    TITLE "0:"
    INDEX 01 03:46:32
  TRACK 172 AUDIO
    TITLE "29:cjc024_5745"
    INDEX 01 03:46:73
  TRACK 173 AUDIO
    TITLE "0:"
    INDEX 01 03:49:44
  TRACK 174 AUDIO
    TITLE "30:cjc024_5746"
    INDEX 01 03:50:06
  TRACK 175 AUDIO
    TITLE "0:"
    INDEX 01 03:52:36
  TRACK 176 AUDIO
    TITLE "31:cjc024_5747"
    INDEX 01 03:52:60
  TRACK 177 AUDIO
    TITLE "0:"
    INDEX 01 03:55:17
  TRACK 178 AUDIO
    TITLE "28:cjc024_5748"
    INDEX 01 03:56:14
  TRACK 179 AUDIO
    TITLE "0:"
    INDEX 01 03:57:20
  TRACK 180 AUDIO
    TITLE "29:cjc024_5749"
    INDEX 01 03:57:55
  TRACK 181 AUDIO
    TITLE "0:"
    INDEX 01 04:00:08
  TRACK 182 AUDIO
    TITLE "30:cjc024_5750"
    INDEX 01 04:00:53
  TRACK 183 AUDIO
    TITLE "0:"
    INDEX 01 04:02:64
  TRACK 184 AUDIO
    TITLE "31:cjc024_5751"
    INDEX 01 04:03:15
  TRACK 185 AUDIO
    TITLE "0:"
    INDEX 01 04:05:23
  TRACK 186 AUDIO
    TITLE "28:cjc024_5752"
    INDEX 01 04:06:25
  TRACK 187 AUDIO
    TITLE "0:"
    INDEX 01 04:07:48
  TRACK 188 AUDIO
    TITLE "29:cjc024_5753"
    INDEX 01 04:08:08
  TRACK 189 AUDIO
    TITLE "0:"
    INDEX 01 04:10:24
  TRACK 190 AUDIO
    TITLE "30:cjc024_5754"
    INDEX 01 04:10:66
  TRACK 191 AUDIO
    TITLE "0:"
    INDEX 01 04:13:11
  TRACK 192 AUDIO
    TITLE "31:cjc024_5755"
    INDEX 01 04:13:34
  TRACK 193 AUDIO
    TITLE "0:"
    INDEX 01 04:15:59
  TRACK 194 AUDIO
    TITLE "28:cjc024_5756"
    INDEX 01 04:16:58
  TRACK 195 AUDIO
    TITLE "0:"
    INDEX 01 04:17:71
  TRACK 196 AUDIO
    TITLE "29:cjc024_5757"
    INDEX 01 04:18:38
  TRACK 197 AUDIO
    TITLE "0:"
    INDEX 01 04:20:25
  TRACK 198 AUDIO
    TITLE "30:cjc024_5758"
    INDEX 01 04:20:62
  TRACK 199 AUDIO
    TITLE "0:"
    INDEX 01 04:22:37
  TRACK 200 AUDIO
    TITLE "31:cjc024_5759"
    INDEX 01 04:22:61
  TRACK 201 AUDIO
    TITLE "0:"
    INDEX 01 04:24:38
  TRACK 202 AUDIO
    TITLE "28:cjc024_5760"
    INDEX 01 04:25:40
  TRACK 203 AUDIO
    TITLE "0:"
    INDEX 01 04:26:74
  TRACK 204 AUDIO
    TITLE "29:cjc024_5761"
    INDEX 01 04:27:37
  TRACK 205 AUDIO
    TITLE "0:"
    INDEX 01 04:30:00
  TRACK 206 AUDIO
    TITLE "30:cjc024_5762"
    INDEX 01 04:30:41
  TRACK 207 AUDIO
    TITLE "0:"
    INDEX 01 04:33:51
  TRACK 208 AUDIO
    TITLE "31:cjc024_5763"
    INDEX 01 04:34:01
  TRACK 209 AUDIO
    TITLE "0:"
    INDEX 01 04:37:11
  TRACK 210 AUDIO
    TITLE "28:cjc024_5764"
    INDEX 01 04:38:13
  TRACK 211 AUDIO
    TITLE "0:"
    INDEX 01 04:39:06
  TRACK 212 AUDIO
    TITLE "29:cjc024_5765"
    INDEX 01 04:39:50
  TRACK 213 AUDIO
    TITLE "0:"
    INDEX 01 04:43:00
  TRACK 214 AUDIO
    TITLE "30:cjc024_5766"
    INDEX 01 04:43:38
  TRACK 215 AUDIO
    TITLE "0:"
    INDEX 01 04:46:08
  TRACK 216 AUDIO
    TITLE "31:cjc024_5767"
    INDEX 01 04:46:36
  TRACK 217 AUDIO
    TITLE "0:"
    INDEX 01 04:49:07
  TRACK 218 AUDIO
    TITLE "28:cjc024_5768"
    INDEX 01 04:50:08
  TRACK 219 AUDIO
    TITLE "0:"
    INDEX 01 04:51:19
  TRACK 220 AUDIO
    TITLE "29:cjc024_5769"
    INDEX 01 04:51:64
  TRACK 221 AUDIO
    TITLE "0:"
    INDEX 01 04:53:65
  TRACK 222 AUDIO
    TITLE "30:cjc024_5770"
    INDEX 01 04:54:28
  TRACK 223 AUDIO
    TITLE "0:"
    INDEX 01 04:56:68
  TRACK 224 AUDIO
    TITLE "31:cjc024_5771"
    INDEX 01 04:57:16
  TRACK 225 AUDIO
    TITLE "0:"
    INDEX 01 04:59:54
  TRACK 226 AUDIO
    TITLE "28:cjc024_5772"
    INDEX 01 05:00:56
  TRACK 227 AUDIO
    TITLE "0:"
    INDEX 01 05:02:21
  TRACK 228 AUDIO
    TITLE "29:cjc024_5773"
    INDEX 01 05:02:60
  TRACK 229 AUDIO
    TITLE "0:"
    INDEX 01 05:04:63
  TRACK 230 AUDIO
    TITLE "30:cjc024_5774"
    INDEX 01 05:05:25
  TRACK 231 AUDIO
    TITLE "0:"
    INDEX 01 05:07:38
  TRACK 232 AUDIO
    TITLE "31:cjc024_5775"
    INDEX 01 05:07:63
  TRACK 233 AUDIO
    TITLE "0:"
    INDEX 01 05:10:01
  TRACK 234 AUDIO
    TITLE "28:cjc024_5776"
    INDEX 01 05:11:03
  TRACK 235 AUDIO
    TITLE "0:"
    INDEX 01 05:12:33
  TRACK 236 AUDIO
    TITLE "29:cjc024_5777"
    INDEX 01 05:12:72
  TRACK 237 AUDIO
    TITLE "0:"
    INDEX 01 05:15:22
  TRACK 238 AUDIO
    TITLE "30:cjc024_5778"
    INDEX 01 05:15:61
  TRACK 239 AUDIO
    TITLE "0:"
    INDEX 01 05:18:24
  TRACK 240 AUDIO
    TITLE "31:cjc024_5779"
    INDEX 01 05:18:52
  TRACK 241 AUDIO
    TITLE "0:"
    INDEX 01 05:21:17
  TRACK 242 AUDIO
    TITLE "28:cjc024_5780"
    INDEX 01 05:22:16
  TRACK 243 AUDIO
    TITLE "0:"
    INDEX 01 05:23:23
  TRACK 244 AUDIO
    TITLE "29:cjc024_5781"
    INDEX 01 05:23:61
  TRACK 245 AUDIO
    TITLE "0:"
    INDEX 01 05:25:52
  TRACK 246 AUDIO
    TITLE "30:cjc024_5782"
    INDEX 01 05:26:12
  TRACK 247 AUDIO
    TITLE "0:"
    INDEX 01 05:28:70
  TRACK 248 AUDIO
    TITLE "31:cjc024_5783"
    INDEX 01 05:29:20
  TRACK 249 AUDIO
    TITLE "0:"
    INDEX 01 05:32:01
  TRACK 250 AUDIO
    TITLE "28:cjc024_5784"
    INDEX 01 05:33:02
  TRACK 251 AUDIO
    TITLE "0:"
    INDEX 01 05:34:13
  TRACK 252 AUDIO
    TITLE "29:cjc024_5785"
    INDEX 01 05:34:53
  TRACK 253 AUDIO
    TITLE "0:"
    INDEX 01 05:36:34
  TRACK 254 AUDIO
    TITLE "30:cjc024_5786"
    INDEX 01 05:37:00
  TRACK 255 AUDIO
    TITLE "0:"
    INDEX 01 05:38:48
  TRACK 256 AUDIO
    TITLE "31:cjc024_5787"
    INDEX 01 05:39:01
  TRACK 257 AUDIO
    TITLE "0:"
    INDEX 01 05:40:49
  TRACK 258 AUDIO
    TITLE "28:cjc024_5788"
    INDEX 01 05:41:53
  TRACK 259 AUDIO
    TITLE "0:"
    INDEX 01 05:42:74
  TRACK 260 AUDIO
    TITLE "29:cjc024_5789"
    INDEX 01 05:43:34
  TRACK 261 AUDIO
    TITLE "0:"
    INDEX 01 05:45:13
  TRACK 262 AUDIO
    TITLE "30:cjc024_5790"
    INDEX 01 05:45:58
  TRACK 263 AUDIO
    TITLE "0:"
    INDEX 01 05:47:38
  TRACK 264 AUDIO
    TITLE "31:cjc024_5791"
    INDEX 01 05:47:63
  TRACK 265 AUDIO
    TITLE "0:"
    INDEX 01 05:49:42
  TRACK 266 AUDIO
    TITLE "28:cjc024_5792"
    INDEX 01 05:50:46
  TRACK 267 AUDIO
    TITLE "0:"
    INDEX 01 05:51:63
  TRACK 268 AUDIO
    TITLE "29:cjc024_5793"
    INDEX 01 05:52:29
  TRACK 269 AUDIO
    TITLE "0:"
    INDEX 01 05:54:61
  TRACK 270 AUDIO
    TITLE "30:cjc024_5794"
    INDEX 01 05:55:23
  TRACK 271 AUDIO
    TITLE "0:"
    INDEX 01 05:57:10
  TRACK 272 AUDIO
    TITLE "31:cjc024_5795"
    INDEX 01 05:57:36
  TRACK 273 AUDIO
    TITLE "0:"
    INDEX 01 05:59:23
  TRACK 274 AUDIO
    TITLE "28:cjc024_5796"
    INDEX 01 06:00:24
  TRACK 275 AUDIO
    TITLE "0:"
    INDEX 01 06:01:36
  TRACK 276 AUDIO
    TITLE "29:cjc024_5797"
    INDEX 01 06:01:73
  TRACK 277 AUDIO
    TITLE "0:"
    INDEX 01 06:03:68
  TRACK 278 AUDIO
    TITLE "30:cjc024_5798"
    INDEX 01 06:04:30
  TRACK 279 AUDIO
    TITLE "0:"
    INDEX 01 06:06:47
  TRACK 280 AUDIO
    TITLE "31:cjc024_5799"
    INDEX 01 06:06:70
  TRACK 281 AUDIO
    TITLE "0:"
    INDEX 01 06:09:12
  TRACK 282 AUDIO
    TITLE "28:cjc024_5800"
    INDEX 01 06:10:11
  TRACK 283 AUDIO
    TITLE "0:"
    INDEX 01 06:11:18
  TRACK 284 AUDIO
    TITLE "29:cjc024_5801"
    INDEX 01 06:11:58
  TRACK 285 AUDIO
    TITLE "0:"
    INDEX 01 06:13:57
  TRACK 286 AUDIO
    TITLE "30:cjc024_5802"
    INDEX 01 06:14:25
  TRACK 287 AUDIO
    TITLE "0:"
    INDEX 01 06:16:08
  TRACK 288 AUDIO
    TITLE "31:cjc024_5803"
    INDEX 01 06:16:31
  TRACK 289 AUDIO
    TITLE "0:"
    INDEX 01 06:18:17
  TRACK 290 AUDIO
    TITLE "28:cjc024_5804"
    INDEX 01 06:19:12
  TRACK 291 AUDIO
    TITLE "0:"
    INDEX 01 06:20:12
  TRACK 292 AUDIO
    TITLE "29:cjc024_5805"
    INDEX 01 06:20:51
  TRACK 293 AUDIO
    TITLE "0:"
    INDEX 01 06:23:47
  TRACK 294 AUDIO
    TITLE "30:cjc024_5806"
    INDEX 01 06:24:09
  TRACK 295 AUDIO
    TITLE "0:"
    INDEX 01 06:26:61
  TRACK 296 AUDIO
    TITLE "31:cjc024_5807"
    INDEX 01 06:27:12
  TRACK 297 AUDIO
    TITLE "0:"
    INDEX 01 06:29:61
  TRACK 298 AUDIO
    TITLE "28:cjc024_5808"
    INDEX 01 06:30:61
  TRACK 299 AUDIO
    TITLE "0:"
    INDEX 01 06:31:72
  TRACK 300 AUDIO
    TITLE "29:cjc024_5809"
    INDEX 01 06:32:36
  TRACK 301 AUDIO
    TITLE "0:"
    INDEX 01 06:34:29
  TRACK 302 AUDIO
    TITLE "30:cjc024_5810"
    INDEX 01 06:34:68
  TRACK 303 AUDIO
    TITLE "0:"
    INDEX 01 06:37:00
  TRACK 304 AUDIO
    TITLE "31:cjc024_5811"
    INDEX 01 06:37:28
  TRACK 305 AUDIO
    TITLE "0:"
    INDEX 01 06:39:32
  TRACK 306 AUDIO
    TITLE "28:cjc024_5812"
    INDEX 01 06:40:34
  TRACK 307 AUDIO
    TITLE "0:"
    INDEX 01 06:41:53
  TRACK 308 AUDIO
    TITLE "29:cjc024_5813"
    INDEX 01 06:42:15
  TRACK 309 AUDIO
    TITLE "0:"
    INDEX 01 06:44:04
  TRACK 310 AUDIO
    TITLE "30:cjc024_5814"
    INDEX 01 06:44:43
  TRACK 311 AUDIO
    TITLE "0:"
    INDEX 01 06:46:30
  TRACK 312 AUDIO
    TITLE "31:cjc024_5815"
    INDEX 01 06:46:56
  TRACK 313 AUDIO
    TITLE "0:"
    INDEX 01 06:48:43
  TRACK 314 AUDIO
    TITLE "28:cjc024_5816"
    INDEX 01 06:49:46
  TRACK 315 AUDIO
    TITLE "0:"
    INDEX 01 06:50:46
  TRACK 316 AUDIO
    TITLE "29:cjc024_5817"
    INDEX 01 06:51:08
  TRACK 317 AUDIO
    TITLE "0:"
    INDEX 01 06:53:36
  TRACK 318 AUDIO
    TITLE "30:cjc024_5818"
    INDEX 01 06:53:74
  TRACK 319 AUDIO
    TITLE "0:"
    INDEX 01 06:56:17
  TRACK 320 AUDIO
    TITLE "31:cjc024_5819"
    INDEX 01 06:56:45
  TRACK 321 AUDIO
    TITLE "0:"
    INDEX 01 06:58:61
  TRACK 322 AUDIO
    TITLE "28:cjc024_5820"
    INDEX 01 06:59:63
  TRACK 323 AUDIO
    TITLE "0:"
    INDEX 01 07:01:01
  TRACK 324 AUDIO
    TITLE "29:cjc024_5821"
    INDEX 01 07:01:36
  TRACK 325 AUDIO
    TITLE "0:"
    INDEX 01 07:03:07
  TRACK 326 AUDIO
    TITLE "30:cjc024_5822"
    INDEX 01 07:03:45
  TRACK 327 AUDIO
    TITLE "0:"
    INDEX 01 07:05:69
  TRACK 328 AUDIO
    TITLE "31:cjc024_5823"
    INDEX 01 07:06:16
  TRACK 329 AUDIO
    TITLE "0:"
    INDEX 01 07:08:42
  TRACK 330 AUDIO
    TITLE "28:cjc024_5824"
    INDEX 01 07:09:39
  TRACK 331 AUDIO
    TITLE "0:"
    INDEX 01 07:10:47
  TRACK 332 AUDIO
    TITLE "29:cjc024_5825"
    INDEX 01 07:11:09
  TRACK 333 AUDIO
    TITLE "0:"
    INDEX 01 07:12:69
  TRACK 334 AUDIO
    TITLE "30:cjc024_5826"
    INDEX 01 07:13:31
  TRACK 335 AUDIO
    TITLE "0:"
    INDEX 01 07:15:15
  TRACK 336 AUDIO
    TITLE "31:cjc024_5827"
    INDEX 01 07:15:36
  TRACK 337 AUDIO
    TITLE "0:"
    INDEX 01 07:17:19
  TRACK 338 AUDIO
    TITLE "28:cjc024_5828"
    INDEX 01 07:18:19
  TRACK 339 AUDIO
    TITLE "0:"
    INDEX 01 07:19:24
  TRACK 340 AUDIO
    TITLE "29:cjc024_5829"
    INDEX 01 07:19:69
  TRACK 341 AUDIO
    TITLE "0:"
    INDEX 01 07:23:45
  TRACK 342 AUDIO
    TITLE "30:cjc024_5830"
    INDEX 01 07:24:06
  TRACK 343 AUDIO
    TITLE "0:"
    INDEX 01 07:26:59
  TRACK 344 AUDIO
    TITLE "31:cjc024_5831"
    INDEX 01 07:27:08
  TRACK 345 AUDIO
    TITLE "0:"
    INDEX 01 07:29:68
  TRACK 346 AUDIO
    TITLE "28:cjc024_5832"
    INDEX 01 07:30:65
  TRACK 347 AUDIO
    TITLE "0:"
    INDEX 01 07:31:70
  TRACK 348 AUDIO
    TITLE "29:cjc024_5833"
    INDEX 01 07:32:35
  TRACK 349 AUDIO
    TITLE "0:"
    INDEX 01 07:34:49
  TRACK 350 AUDIO
    TITLE "30:cjc024_5834"
    INDEX 01 07:35:13
  TRACK 351 AUDIO
    TITLE "0:"
    INDEX 01 07:37:28
  TRACK 352 AUDIO
    TITLE "31:cjc024_5835"
    INDEX 01 07:37:61
  TRACK 353 AUDIO
    TITLE "0:"
    INDEX 01 07:40:03
  TRACK 354 AUDIO
    TITLE "28:cjc024_5836"
    INDEX 01 07:41:08
  TRACK 355 AUDIO
    TITLE "0:"
    INDEX 01 07:42:09
  TRACK 356 AUDIO
    TITLE "29:cjc024_5837"
    INDEX 01 07:42:53
  TRACK 357 AUDIO
    TITLE "0:"
    INDEX 01 07:45:35
  TRACK 358 AUDIO
    TITLE "30:cjc024_5838"
    INDEX 01 07:46:01
  TRACK 359 AUDIO
    TITLE "0:"
    INDEX 01 07:48:20
  TRACK 360 AUDIO
    TITLE "31:cjc024_5839"
    INDEX 01 07:48:45
  TRACK 361 AUDIO
    TITLE "0:"
    INDEX 01 07:50:68
  TRACK 362 AUDIO
    TITLE "28:cjc024_5840"
    INDEX 01 07:51:65
  TRACK 363 AUDIO
    TITLE "0:"
    INDEX 01 07:53:07
  TRACK 364 AUDIO
    TITLE "29:cjc024_5841"
    INDEX 01 07:53:50
  TRACK 365 AUDIO
    TITLE "0:"
    INDEX 01 07:55:16
  TRACK 366 AUDIO
    TITLE "30:cjc024_5842"
    INDEX 01 07:55:49
  TRACK 367 AUDIO
    TITLE "0:"
    INDEX 01 07:57:33
  TRACK 368 AUDIO
    TITLE "31:cjc024_5843"
    INDEX 01 07:57:54
  TRACK 369 AUDIO
    TITLE "0:"
    INDEX 01 07:59:35
  TRACK 370 AUDIO
    TITLE "28:cjc024_5844"
    INDEX 01 08:00:39
  TRACK 371 AUDIO
    TITLE "0:"
    INDEX 01 08:01:46
  TRACK 372 AUDIO
    TITLE "29:cjc024_5845"
    INDEX 01 08:02:14
  TRACK 373 AUDIO
    TITLE "0:"
    INDEX 01 08:06:24
  TRACK 374 AUDIO
    TITLE "30:cjc024_5846"
    INDEX 01 08:06:59
  TRACK 375 AUDIO
    TITLE "0:"
    INDEX 01 08:10:14
  TRACK 376 AUDIO
    TITLE "31:cjc024_5847"
    INDEX 01 08:10:39
  TRACK 377 AUDIO
    TITLE "0:"
    INDEX 01 08:13:69
  TRACK 378 AUDIO
    TITLE "28:cjc024_5848"
    INDEX 01 08:14:68
  TRACK 379 AUDIO
    TITLE "0:"
    INDEX 01 08:16:18
  TRACK 380 AUDIO
    TITLE "29:cjc024_5849"
    INDEX 01 08:16:55
  TRACK 381 AUDIO
    TITLE "0:"
    INDEX 01 08:20:32
  TRACK 382 AUDIO
    TITLE "30:cjc024_5850"
    INDEX 01 08:20:67
  TRACK 383 AUDIO
    TITLE "0:"
    INDEX 01 08:23:59
  TRACK 384 AUDIO
    TITLE "31:cjc024_5851"
    INDEX 01 08:24:18
  TRACK 385 AUDIO
    TITLE "0:"
    INDEX 01 08:27:08
  TRACK 386 AUDIO
    TITLE "28:cjc024_5852"
    INDEX 01 08:28:13
  TRACK 387 AUDIO
    TITLE "0:"
    INDEX 01 08:29:31
  TRACK 388 AUDIO
    TITLE "29:cjc024_5853"
    INDEX 01 08:29:68
  TRACK 389 AUDIO
    TITLE "0:"
    INDEX 01 08:31:53
  TRACK 390 AUDIO
    TITLE "30:cjc024_5854"
    INDEX 01 08:32:15
  TRACK 391 AUDIO
    TITLE "0:"
    INDEX 01 08:34:18
  TRACK 392 AUDIO
    TITLE "31:cjc024_5855"
    INDEX 01 08:34:40
  TRACK 393 AUDIO
    TITLE "0:"
    INDEX 01 08:36:42
  TRACK 394 AUDIO
    TITLE "28:cjc024_5856"
    INDEX 01 08:37:44
  TRACK 395 AUDIO
    TITLE "0:"
    INDEX 01 08:38:45
  TRACK 396 AUDIO
    TITLE "29:cjc024_5857"
    INDEX 01 08:39:07
  TRACK 397 AUDIO
    TITLE "0:"
    INDEX 01 08:42:59
  TRACK 398 AUDIO
    TITLE "30:cjc024_5858"
    INDEX 01 08:43:15
  TRACK 399 AUDIO
    TITLE "0:"
    INDEX 01 08:46:06
  TRACK 400 AUDIO
    TITLE "31:cjc024_5859"
    INDEX 01 08:46:33
  TRACK 401 AUDIO
    TITLE "0:"
    INDEX 01 08:49:23
  TRACK 402 AUDIO
    TITLE "28:cjc024_5860"
    INDEX 01 08:50:35
  TRACK 403 AUDIO
    TITLE "0:"
    INDEX 01 08:51:44
  TRACK 404 AUDIO
    TITLE "29:cjc024_5861"
    INDEX 01 08:52:06
  TRACK 405 AUDIO
    TITLE "0:"
    INDEX 01 08:54:23
  TRACK 406 AUDIO
    TITLE "30:cjc024_5862"
    INDEX 01 08:54:58
  TRACK 407 AUDIO
    TITLE "0:"
    INDEX 01 08:56:45
  TRACK 408 AUDIO
    TITLE "31:cjc024_5863"
    INDEX 01 08:57:01
  TRACK 409 AUDIO
    TITLE "0:"
    INDEX 01 08:58:64
  TRACK 410 AUDIO
    TITLE "28:cjc024_5864"
    INDEX 01 08:59:69
  TRACK 411 AUDIO
    TITLE "0:"
    INDEX 01 09:01:13
  TRACK 412 AUDIO
    TITLE "29:cjc024_5865"
    INDEX 01 09:01:50
  TRACK 413 AUDIO
    TITLE "0:"
    INDEX 01 09:04:00
  TRACK 414 AUDIO
    TITLE "30:cjc024_5866"
    INDEX 01 09:04:41
  TRACK 415 AUDIO
    TITLE "0:"
    INDEX 01 09:06:49
  TRACK 416 AUDIO
    TITLE "31:cjc024_5867"
    INDEX 01 09:07:02
  TRACK 417 AUDIO
    TITLE "0:"
    INDEX 01 09:09:12
  TRACK 418 AUDIO
    TITLE "28:cjc024_5868"
    INDEX 01 09:10:12
  TRACK 419 AUDIO
    TITLE "0:"
    INDEX 01 09:11:21
  TRACK 420 AUDIO
    TITLE "29:cjc024_5869"
    INDEX 01 09:11:60
  TRACK 421 AUDIO
    TITLE "0:"
    INDEX 01 09:16:14
  TRACK 422 AUDIO
    TITLE "30:cjc024_5870"
    INDEX 01 09:16:58
  TRACK 423 AUDIO
    TITLE "0:"
    INDEX 01 09:20:06
  TRACK 424 AUDIO
    TITLE "31:cjc024_5871"
    INDEX 01 09:20:34
  TRACK 425 AUDIO
    TITLE "0:"
    INDEX 01 09:23:60
  TRACK 426 AUDIO
    TITLE "28:cjc024_5872"
    INDEX 01 09:24:61
  TRACK 427 AUDIO
    TITLE "0:"
    INDEX 01 09:25:72
  TRACK 428 AUDIO
    TITLE "29:cjc024_5873"
    INDEX 01 09:26:32
  TRACK 429 AUDIO
    TITLE "0:"
    INDEX 01 09:29:01
  TRACK 430 AUDIO
    TITLE "30:cjc024_5874"
    INDEX 01 09:29:48
  TRACK 431 AUDIO
    TITLE "0:"
    INDEX 01 09:32:08
  TRACK 432 AUDIO
    TITLE "31:cjc024_5875"
    INDEX 01 09:32:33
  TRACK 433 AUDIO
    TITLE "0:"
    INDEX 01 09:34:65
  TRACK 434 AUDIO
    TITLE "28:cjc024_5876"
    INDEX 01 09:35:67
  TRACK 435 AUDIO
    TITLE "0:"
    INDEX 01 09:37:01
  TRACK 436 AUDIO
    TITLE "29:cjc024_5877"
    INDEX 01 09:37:42
  TRACK 437 AUDIO
    TITLE "0:"
    INDEX 01 09:39:29
  TRACK 438 AUDIO
    TITLE "30:cjc024_5878"
    INDEX 01 09:39:64
  TRACK 439 AUDIO
    TITLE "0:"
    INDEX 01 09:42:00
  TRACK 440 AUDIO
    TITLE "31:cjc024_5879"
    INDEX 01 09:42:28
  TRACK 441 AUDIO
    TITLE "0:"
    INDEX 01 09:44:34
  TRACK 442 AUDIO
    TITLE "28:cjc024_5880"
    INDEX 01 09:45:44
  TRACK 443 AUDIO
    TITLE "0:"
    INDEX 01 09:46:59
  TRACK 444 AUDIO
    TITLE "29:cjc024_5881"
    INDEX 01 09:47:19
  TRACK 445 AUDIO
    TITLE "0:"
    INDEX 01 09:48:58
  TRACK 446 AUDIO
    TITLE "30:cjc024_5882"
    INDEX 01 09:49:26
  TRACK 447 AUDIO
    TITLE "0:"
    INDEX 01 09:51:17
  TRACK 448 AUDIO
    TITLE "31:cjc024_5883"
    INDEX 01 09:51:40
  TRACK 449 AUDIO
    TITLE "0:"
    INDEX 01 09:53:33
  TRACK 450 AUDIO
    TITLE "28:cjc024_5884"
    INDEX 01 09:54:35
  TRACK 451 AUDIO
    TITLE "0:"
    INDEX 01 09:55:38
  TRACK 452 AUDIO
    TITLE "29:cjc024_5885"
    INDEX 01 09:56:04
  TRACK 453 AUDIO
    TITLE "0:"
    INDEX 01 10:00:61
  TRACK 454 AUDIO
    TITLE "30:cjc024_5886"
    INDEX 01 10:01:29
  TRACK 455 AUDIO
    TITLE "0:"
    INDEX 01 10:04:31
  TRACK 456 AUDIO
    TITLE "31:cjc024_5887"
    INDEX 01 10:04:59
  TRACK 457 AUDIO
    TITLE "0:"
    INDEX 01 10:07:61
  TRACK 458 AUDIO
    TITLE "28:cjc024_5888"
    INDEX 01 10:08:62
  TRACK 459 AUDIO
    TITLE "0:"
    INDEX 01 10:10:06
  TRACK 460 AUDIO
    TITLE "29:cjc024_5889"
    INDEX 01 10:10:45
  TRACK 461 AUDIO
    TITLE "0:"
    INDEX 01 10:13:07
  TRACK 462 AUDIO
    TITLE "30:cjc024_5890"
    INDEX 01 10:13:50
  TRACK 463 AUDIO
    TITLE "0:"
    INDEX 01 10:15:74
  TRACK 464 AUDIO
    TITLE "31:cjc024_5891"
    INDEX 01 10:16:26
  TRACK 465 AUDIO
    TITLE "0:"
    INDEX 01 10:18:53
  TRACK 466 AUDIO
    TITLE "28:cjc024_5892"
    INDEX 01 10:19:54
  TRACK 467 AUDIO
    TITLE "0:"
    INDEX 01 10:20:65
  TRACK 468 AUDIO
    TITLE "29:cjc024_5893"
    INDEX 01 10:21:32
  TRACK 469 AUDIO
    TITLE "0:"
    INDEX 01 10:23:27
  TRACK 470 AUDIO
    TITLE "30:cjc024_5894"
    INDEX 01 10:23:64
  TRACK 471 AUDIO
    TITLE "0:"
    INDEX 01 10:25:45
  TRACK 472 AUDIO
    TITLE "31:cjc024_5895"
    INDEX 01 10:25:70
  TRACK 473 AUDIO
    TITLE "0:"
    INDEX 01 10:27:54
  TRACK 474 AUDIO
    TITLE "28:cjc024_5896"
    INDEX 01 10:28:53
  TRACK 475 AUDIO
    TITLE "0:"
    INDEX 01 10:29:60
  TRACK 476 AUDIO
    TITLE "29:cjc024_5897"
    INDEX 01 10:30:25
  TRACK 477 AUDIO
    TITLE "0:"
    INDEX 01 10:34:34
  TRACK 478 AUDIO
    TITLE "30:cjc024_5898"
    INDEX 01 10:35:00
  TRACK 479 AUDIO
    TITLE "0:"
    INDEX 01 10:37:44
  TRACK 480 AUDIO
    TITLE "31:cjc024_5899"
    INDEX 01 10:37:72
  TRACK 481 AUDIO
    TITLE "0:"
    INDEX 01 10:40:41
  TRACK 482 AUDIO
    TITLE "28:cjc024_5900"
    INDEX 01 10:41:42
  TRACK 483 AUDIO
    TITLE "0:"
    INDEX 01 10:43:00
  TRACK 484 AUDIO
    TITLE "29:cjc024_5901"
    INDEX 01 10:43:35
  TRACK 485 AUDIO
    TITLE "0:"
    INDEX 01 10:45:42
  TRACK 486 AUDIO
    TITLE "30:cjc024_5902"
    INDEX 01 10:46:08
  TRACK 487 AUDIO
    TITLE "0:"
    INDEX 01 10:48:15
  TRACK 488 AUDIO
    TITLE "31:cjc024_5903"
    INDEX 01 10:48:48
  TRACK 489 AUDIO
    TITLE "0:"
    INDEX 01 10:50:53
  TRACK 490 AUDIO
    TITLE "28:cjc024_5904"
    INDEX 01 10:51:60
  TRACK 491 AUDIO
    TITLE "0:"
    INDEX 01 10:53:06
  TRACK 492 AUDIO
    TITLE "29:cjc024_5905"
    INDEX 01 10:53:45
  TRACK 493 AUDIO
    TITLE "0:"
    INDEX 01 10:55:64
  TRACK 494 AUDIO
    TITLE "30:cjc024_5906"
    INDEX 01 10:56:22
  TRACK 495 AUDIO
    TITLE "0:"
    INDEX 01 10:58:39
  TRACK 496 AUDIO
    TITLE "31:cjc024_5907"
    INDEX 01 10:58:60
  TRACK 497 AUDIO
    TITLE "0:"
    INDEX 01 11:01:02
  TRACK 498 AUDIO
    TITLE "28:cjc024_5908"
    INDEX 01 11:02:01
  TRACK 499 AUDIO
    TITLE "0:"
    INDEX 01 11:02:74
  TRACK 500 AUDIO
    TITLE "29:cjc024_5909"
    INDEX 01 11:03:34
  TRACK 501 AUDIO
    TITLE "0:"
    INDEX 01 11:05:50
  TRACK 502 AUDIO
    TITLE "30:cjc024_5910"
    INDEX 01 11:06:18
  TRACK 503 AUDIO
    TITLE "0:"
    INDEX 01 11:08:10
  TRACK 504 AUDIO
    TITLE "31:cjc024_5911"
    INDEX 01 11:08:45
  TRACK 505 AUDIO
    TITLE "0:"
    INDEX 01 11:10:36
  TRACK 506 AUDIO
    TITLE "28:cjc024_5912"
    INDEX 01 11:11:45
  TRACK 507 AUDIO
    TITLE "0:"
    INDEX 01 11:12:52
  TRACK 508 AUDIO
    TITLE "29:cjc024_5913"
    INDEX 01 11:13:21
  TRACK 509 AUDIO
    TITLE "0:"
    INDEX 01 11:16:52
  TRACK 510 AUDIO
    TITLE "30:cjc024_5914"
    INDEX 01 11:17:22
  TRACK 511 AUDIO
    TITLE "0:"
    INDEX 01 11:19:64
  TRACK 512 AUDIO
    TITLE "31:cjc024_5915"
    INDEX 01 11:20:24
  TRACK 513 AUDIO
    TITLE "0:"
    INDEX 01 11:22:66
  TRACK 514 AUDIO
    TITLE "28:cjc024_5916"
    INDEX 01 11:23:72
  TRACK 515 AUDIO
    TITLE "0:"
    INDEX 01 11:25:00
  TRACK 516 AUDIO
    TITLE "29:cjc024_5917"
    INDEX 01 11:25:41
  TRACK 517 AUDIO
    TITLE "0:"
    INDEX 01 11:27:17
  TRACK 518 AUDIO
    TITLE "30:cjc024_5918"
    INDEX 01 11:27:54
  TRACK 519 AUDIO
    TITLE "0:"
    INDEX 01 11:29:12
  TRACK 520 AUDIO
    TITLE "31:cjc024_5919"
    INDEX 01 11:29:33
  TRACK 521 AUDIO
    TITLE "0:"
    INDEX 01 11:30:64
  TRACK 522 AUDIO
    TITLE "28:cjc024_5920"
    INDEX 01 11:31:63
  TRACK 523 AUDIO
    TITLE "0:"
    INDEX 01 11:32:71
  TRACK 524 AUDIO
    TITLE "29:cjc024_5921"
    INDEX 01 11:33:39
  TRACK 525 AUDIO
    TITLE "0:"
    INDEX 01 11:36:49
  TRACK 526 AUDIO
    TITLE "30:cjc024_5922"
    INDEX 01 11:37:21
  TRACK 527 AUDIO
    TITLE "0:"
    INDEX 01 11:40:04
  TRACK 528 AUDIO
    TITLE "31:cjc024_5923"
    INDEX 01 11:40:43
  TRACK 529 AUDIO
    TITLE "0:"
    INDEX 01 11:43:24
  TRACK 530 AUDIO
    TITLE "28:cjc024_5924"
    INDEX 01 11:44:35
  TRACK 531 AUDIO
    TITLE "0:"
    INDEX 01 11:45:46
  TRACK 532 AUDIO
    TITLE "29:cjc024_5925"
    INDEX 01 11:46:10
  TRACK 533 AUDIO
    TITLE "0:"
    INDEX 01 11:48:74
  TRACK 534 AUDIO
    TITLE "30:cjc024_5926"
    INDEX 01 11:49:34
  TRACK 535 AUDIO
    TITLE "0:"
    INDEX 01 11:51:33
  TRACK 536 AUDIO
    TITLE "31:cjc024_5927"
    INDEX 01 11:51:52
  TRACK 537 AUDIO
    TITLE "0:"
    INDEX 01 11:53:47
  TRACK 538 AUDIO
    TITLE "28:cjc024_5928"
    INDEX 01 11:54:49
  TRACK 539 AUDIO
    TITLE "0:"
    INDEX 01 11:55:48
  TRACK 540 AUDIO
    TITLE "29:cjc024_5929"
    INDEX 01 11:56:12
  TRACK 541 AUDIO
    TITLE "0:"
    INDEX 01 11:59:38
  TRACK 542 AUDIO
    TITLE "30:cjc024_5930"
    INDEX 01 12:00:00
  TRACK 543 AUDIO
    TITLE "0:"
    INDEX 01 12:02:27
  TRACK 544 AUDIO
    TITLE "31:cjc024_5931"
    INDEX 01 12:02:50
  TRACK 545 AUDIO
    TITLE "0:"
    INDEX 01 12:05:02
  TRACK 546 AUDIO
    TITLE "28:cjc024_5932"
    INDEX 01 12:06:01
  TRACK 547 AUDIO
    TITLE "0:"
    INDEX 01 12:07:24
  TRACK 548 AUDIO
    TITLE "29:cjc024_5933"
    INDEX 01 12:07:63
  TRACK 549 AUDIO
    TITLE "0:"
    INDEX 01 12:10:05
  TRACK 550 AUDIO
    TITLE "30:cjc024_5934"
    INDEX 01 12:10:46
  TRACK 551 AUDIO
    TITLE "0:"
    INDEX 01 12:12:72
  TRACK 552 AUDIO
    TITLE "31:cjc024_5935"
    INDEX 01 12:13:29
  TRACK 553 AUDIO
    TITLE "0:"
    INDEX 01 12:15:57
  TRACK 554 AUDIO
    TITLE "28:cjc024_5936"
    INDEX 01 12:16:58
  TRACK 555 AUDIO
    TITLE "0:"
    INDEX 01 12:18:02
  TRACK 556 AUDIO
    TITLE "29:cjc024_5937"
    INDEX 01 12:18:42
  TRACK 557 AUDIO
    TITLE "0:"
    INDEX 01 12:20:50
  TRACK 558 AUDIO
    TITLE "30:cjc024_5938"
    INDEX 01 12:21:20
  TRACK 559 AUDIO
    TITLE "0:"
    INDEX 01 12:23:51
  TRACK 560 AUDIO
    TITLE "31:cjc024_5939"
    INDEX 01 12:23:72
  TRACK 561 AUDIO
    TITLE "0:"
    INDEX 01 12:26:27
  TRACK 562 AUDIO
    TITLE "28:cjc024_5940"
    INDEX 01 12:27:27
  TRACK 563 AUDIO
    TITLE "0:"
    INDEX 01 12:28:24
  TRACK 564 AUDIO
    TITLE "29:cjc024_5941"
    INDEX 01 12:28:63
  TRACK 565 AUDIO
    TITLE "0:"
    INDEX 01 12:30:41
  TRACK 566 AUDIO
    TITLE "30:cjc024_5942"
    INDEX 01 12:31:03
  TRACK 567 AUDIO
    TITLE "0:"
    INDEX 01 12:32:71
  TRACK 568 AUDIO
    TITLE "31:cjc024_5943"
    INDEX 01 12:33:20
  TRACK 569 AUDIO
    TITLE "0:"
    INDEX 01 12:35:15
  TRACK 570 AUDIO
    TITLE "28:cjc024_5944"
    INDEX 01 12:36:12
  TRACK 571 AUDIO
    TITLE "0:"
    INDEX 01 12:37:15
  TRACK 572 AUDIO
    TITLE "29:cjc024_5945"
    INDEX 01 12:37:57
  TRACK 573 AUDIO
    TITLE "0:"
    INDEX 01 12:40:31
  TRACK 574 AUDIO
    TITLE "30:cjc024_5946"
    INDEX 01 12:40:71
  TRACK 575 AUDIO
    TITLE "0:"
    INDEX 01 12:43:20
  TRACK 576 AUDIO
    TITLE "31:cjc024_5947"
    INDEX 01 12:43:43
  TRACK 577 AUDIO
    TITLE "0:"
    INDEX 01 12:45:66
  TRACK 578 AUDIO
    TITLE "28:cjc024_5948"
    INDEX 01 12:46:67
  TRACK 579 AUDIO
    TITLE "0:"
    INDEX 01 12:48:00
  TRACK 580 AUDIO
    TITLE "29:cjc024_5949"
    INDEX 01 12:48:41
  TRACK 581 AUDIO
    TITLE "0:"
    INDEX 01 12:50:53
  TRACK 582 AUDIO
    TITLE "30:cjc024_5950"
    INDEX 01 12:51:19
  TRACK 583 AUDIO
    TITLE "0:"
    INDEX 01 12:52:66
  TRACK 584 AUDIO
    TITLE "31:cjc024_5951"
    INDEX 01 12:53:16
  TRACK 585 AUDIO
    TITLE "0:"
    INDEX 01 12:54:63
  TRACK 586 AUDIO
    TITLE "28:cjc024_5952"
    INDEX 01 12:55:60
  TRACK 587 AUDIO
    TITLE "0:"
    INDEX 01 12:56:73
  TRACK 588 AUDIO
    TITLE "29:cjc024_5953"
    INDEX 01 12:57:38
  TRACK 589 AUDIO
    TITLE "0:"
    INDEX 01 12:59:72
  TRACK 590 AUDIO
    TITLE "30:cjc024_5954"
    INDEX 01 13:00:46
  TRACK 591 AUDIO
    TITLE "0:"
    INDEX 01 13:02:74
  TRACK 592 AUDIO
    TITLE "31:cjc024_5955"
    INDEX 01 13:03:34
  TRACK 593 AUDIO
    TITLE "0:"
    INDEX 01 13:05:67
  TRACK 594 AUDIO
    TITLE "28:cjc024_5956"
    INDEX 01 13:06:72
  TRACK 595 AUDIO
    TITLE "0:"
    INDEX 01 13:08:18
  TRACK 596 AUDIO
    TITLE "29:cjc024_5957"
    INDEX 01 13:08:53
  TRACK 597 AUDIO
    TITLE "0:"
    INDEX 01 13:12:53
  TRACK 598 AUDIO
    TITLE "30:cjc024_5958"
    INDEX 01 13:13:25
  TRACK 599 AUDIO
    TITLE "0:"
    INDEX 01 13:15:63
  TRACK 600 AUDIO
    TITLE "31:cjc024_5959"
    INDEX 01 13:16:19
  TRACK 601 AUDIO
    TITLE "0:"
    INDEX 01 13:18:61
  TRACK 602 AUDIO
    TITLE "28:cjc024_5960"
    INDEX 01 13:19:65
  TRACK 603 AUDIO
    TITLE "0:"
    INDEX 01 13:20:70
  TRACK 604 AUDIO
    TITLE "29:cjc024_5961"
    INDEX 01 13:21:34
  TRACK 605 AUDIO
    TITLE "0:"
    INDEX 01 13:23:49
  TRACK 606 AUDIO
    TITLE "30:cjc024_5962"
    INDEX 01 13:24:07
  TRACK 607 AUDIO
    TITLE "0:"
    INDEX 01 13:26:08
  TRACK 608 AUDIO
    TITLE "31:cjc024_5963"
    INDEX 01 13:26:30
  TRACK 609 AUDIO
    TITLE "0:"
    INDEX 01 13:28:28
  TRACK 610 AUDIO
    TITLE "28:cjc024_5964"
    INDEX 01 13:29:30
  TRACK 611 AUDIO
    TITLE "0:"
    INDEX 01 13:30:41
  TRACK 612 AUDIO
    TITLE "29:cjc024_5965"
    INDEX 01 13:31:07
  TRACK 613 AUDIO
    TITLE "0:"
    INDEX 01 13:34:51
  TRACK 614 AUDIO
    TITLE "30:cjc024_5966"
    INDEX 01 13:35:15
  TRACK 615 AUDIO
    TITLE "0:"
    INDEX 01 13:37:63
  TRACK 616 AUDIO
    TITLE "31:cjc024_5967"
    INDEX 01 13:38:11
  TRACK 617 AUDIO
    TITLE "0:"
    INDEX 01 13:40:59
  TRACK 618 AUDIO
    TITLE "28:cjc024_5968"
    INDEX 01 13:41:58
  TRACK 619 AUDIO
    TITLE "0:"
    INDEX 01 13:42:72
  TRACK 620 AUDIO
    TITLE "29:cjc024_5969"
    INDEX 01 13:43:34
  TRACK 621 AUDIO
    TITLE "0:"
    INDEX 01 13:46:17
  TRACK 622 AUDIO
    TITLE "30:cjc024_5970"
    INDEX 01 13:46:58
  TRACK 623 AUDIO
    TITLE "0:"
    INDEX 01 13:49:29
  TRACK 624 AUDIO
    TITLE "31:cjc024_5971"
    INDEX 01 13:49:52
  TRACK 625 AUDIO
    TITLE "0:"
    INDEX 01 13:52:27
  TRACK 626 AUDIO
    TITLE "28:cjc024_5972"
    INDEX 01 13:53:24
  TRACK 627 AUDIO
    TITLE "0:"
    INDEX 01 13:54:42
  TRACK 628 AUDIO
    TITLE "29:cjc024_5973"
    INDEX 01 13:55:04
  TRACK 629 AUDIO
    TITLE "0:"
    INDEX 01 13:57:01
  TRACK 630 AUDIO
    TITLE "30:cjc024_5974"
    INDEX 01 13:57:42
  TRACK 631 AUDIO
    TITLE "0:"
    INDEX 01 13:59:09
  TRACK 632 AUDIO
    TITLE "31:cjc024_5975"
    INDEX 01 13:59:37
  TRACK 633 AUDIO
    TITLE "0:"
    INDEX 01 14:01:04
  TRACK 634 AUDIO
    TITLE "28:cjc024_5976"
    INDEX 01 14:02:08
  TRACK 635 AUDIO
    TITLE "0:"
    INDEX 01 14:03:37
  TRACK 636 AUDIO
    TITLE "29:cjc024_5977"
    INDEX 01 14:03:72
  TRACK 637 AUDIO
    TITLE "0:"
    INDEX 01 14:07:38
  TRACK 638 AUDIO
    TITLE "30:cjc024_5978"
    INDEX 01 14:08:00
  TRACK 639 AUDIO
    TITLE "0:"
    INDEX 01 14:11:13
  TRACK 640 AUDIO
    TITLE "31:cjc024_5979"
    INDEX 01 14:11:36
  TRACK 641 AUDIO
    TITLE "0:"
    INDEX 01 14:14:46
  TRACK 642 AUDIO
    TITLE "28:cjc024_5980"
    INDEX 01 14:15:48
  TRACK 643 AUDIO
    TITLE "0:"
    INDEX 01 14:16:45
  TRACK 644 AUDIO
    TITLE "29:cjc024_5981"
    INDEX 01 14:17:13
  TRACK 645 AUDIO
    TITLE "0:"
    INDEX 01 14:18:60
  TRACK 646 AUDIO
    TITLE "30:cjc024_5982"
    INDEX 01 14:19:22
  TRACK 647 AUDIO
    TITLE "0:"
    INDEX 01 14:20:74
  TRACK 648 AUDIO
    TITLE "31:cjc024_5983"
    INDEX 01 14:21:27
  TRACK 649 AUDIO
    TITLE "0:"
    INDEX 01 14:23:08
  TRACK 650 AUDIO
    TITLE "28:cjc024_5984"
    INDEX 01 14:24:05
  TRACK 651 AUDIO
    TITLE "0:"
    INDEX 01 14:25:09
  TRACK 652 AUDIO
    TITLE "29:cjc024_5985"
    INDEX 01 14:25:42
  TRACK 653 AUDIO
    TITLE "0:"
    INDEX 01 14:27:19
  TRACK 654 AUDIO
    TITLE "30:cjc024_5986"
    INDEX 01 14:27:63
  TRACK 655 AUDIO
    TITLE "0:"
    INDEX 01 14:29:57
  TRACK 656 AUDIO
    TITLE "31:cjc024_5987"
    INDEX 01 14:30:12
  TRACK 657 AUDIO
    TITLE "0:"
    INDEX 01 14:32:09
  TRACK 658 AUDIO
    TITLE "28:cjc024_5988"
    INDEX 01 14:33:10
  TRACK 659 AUDIO
    TITLE "0:"
    INDEX 01 14:34:18
  TRACK 660 AUDIO
    TITLE "29:cjc024_5989"
    INDEX 01 14:34:65
  TRACK 661 AUDIO
    TITLE "0:"
    INDEX 01 14:36:46
  TRACK 662 AUDIO
    TITLE "30:cjc024_5990"
    INDEX 01 14:37:12
  TRACK 663 AUDIO
    TITLE "0:"
    INDEX 01 14:38:68
  TRACK 664 AUDIO
    TITLE "31:cjc024_5991"
    INDEX 01 14:39:28
  TRACK 665 AUDIO
    TITLE "0:"
    INDEX 01 14:41:14
  TRACK 666 AUDIO
    TITLE "28:cjc024_5992"
    INDEX 01 14:42:21
  TRACK 667 AUDIO
    TITLE "0:"
    INDEX 01 14:43:40
  TRACK 668 AUDIO
    TITLE "29:cjc024_5993"
    INDEX 01 14:44:06
  TRACK 669 AUDIO
    TITLE "0:"
    INDEX 01 14:46:17
  TRACK 670 AUDIO
    TITLE "30:cjc024_5994"
    INDEX 01 14:46:60
  TRACK 671 AUDIO
    TITLE "0:"
    INDEX 01 14:48:74
  TRACK 672 AUDIO
    TITLE "31:cjc024_5995"
    INDEX 01 14:49:27
  TRACK 673 AUDIO
    TITLE "0:"
    INDEX 01 14:51:41
  TRACK 674 AUDIO
    TITLE "28:cjc024_5996"
    INDEX 01 14:52:45
  TRACK 675 AUDIO
    TITLE "0:"
    INDEX 01 14:53:74
  TRACK 676 AUDIO
    TITLE "29:cjc024_5997"
    INDEX 01 14:54:36
  TRACK 677 AUDIO
    TITLE "0:"
    INDEX 01 14:56:35
  TRACK 678 AUDIO
    TITLE "30:cjc024_5998"
    INDEX 01 14:57:11
  TRACK 679 AUDIO
    TITLE "0:"
    INDEX 01 14:59:10
  TRACK 680 AUDIO
    TITLE "31:cjc024_5999"
    INDEX 01 14:59:45
  TRACK 681 AUDIO
    TITLE "0:"
    INDEX 01 15:01:44
  TRACK 682 AUDIO
    TITLE "28:cjc024_6000"
    INDEX 01 15:02:53
  TRACK 683 AUDIO
    TITLE "0:"
    INDEX 01 15:03:51
  TRACK 684 AUDIO
    TITLE "29:cjc024_6001"
    INDEX 01 15:04:23
  TRACK 685 AUDIO
    TITLE "0:"
    INDEX 01 15:07:66
  TRACK 686 AUDIO
    TITLE "30:cjc024_6002"
    INDEX 01 15:08:32
  TRACK 687 AUDIO
    TITLE "0:"
    INDEX 01 15:10:56
  TRACK 688 AUDIO
    TITLE "31:cjc024_6003"
    INDEX 01 15:11:09
  TRACK 689 AUDIO
    TITLE "0:"
    INDEX 01 15:13:31
  TRACK 690 AUDIO
    TITLE "28:cjc024_6004"
    INDEX 01 15:14:35
  TRACK 691 AUDIO
    TITLE "0:"
    INDEX 01 15:15:30
  TRACK 692 AUDIO
    TITLE "29:cjc024_6005"
    INDEX 01 15:15:73
  TRACK 693 AUDIO
    TITLE "0:"
    INDEX 01 15:18:09
  TRACK 694 AUDIO
    TITLE "30:cjc024_6006"
    INDEX 01 15:18:42
  TRACK 695 AUDIO
    TITLE "0:"
    INDEX 01 15:20:47
  TRACK 696 AUDIO
    TITLE "31:cjc024_6007"
    INDEX 01 15:20:71
  TRACK 697 AUDIO
    TITLE "0:"
    INDEX 01 15:22:71
  TRACK 698 AUDIO
    TITLE "28:cjc024_6008"
    INDEX 01 15:24:00
  TRACK 699 AUDIO
    TITLE "0:"
    INDEX 01 15:25:23
  TRACK 700 AUDIO
    TITLE "29:cjc024_6009"
    INDEX 01 15:25:60
  TRACK 701 AUDIO
    TITLE "0:"
    INDEX 01 15:28:01
  TRACK 702 AUDIO
    TITLE "30:cjc024_6010"
    INDEX 01 15:28:47
  TRACK 703 AUDIO
    TITLE "0:"
    INDEX 01 15:30:36
  TRACK 704 AUDIO
    TITLE "31:cjc024_6011"
    INDEX 01 15:30:65
  TRACK 705 AUDIO
    TITLE "0:"
    INDEX 01 15:32:52
  TRACK 706 AUDIO
    TITLE "28:cjc024_6012"
    INDEX 01 15:33:56
  TRACK 707 AUDIO
    TITLE "0:"
    INDEX 01 15:35:03
  TRACK 708 AUDIO
    TITLE "29:cjc024_6013"
    INDEX 01 15:35:43
  TRACK 709 AUDIO
    TITLE "0:"
    INDEX 01 15:37:44
  TRACK 710 AUDIO
    TITLE "30:cjc024_6014"
    INDEX 01 15:38:04
  TRACK 711 AUDIO
    TITLE "0:"
    INDEX 01 15:39:72
  TRACK 712 AUDIO
    TITLE "31:cjc024_6015"
    INDEX 01 15:40:30
  TRACK 713 AUDIO
    TITLE "0:"
    INDEX 01 15:42:23
  TRACK 714 AUDIO
    TITLE "28:cjc024_6016"
    INDEX 01 15:43:32
  TRACK 715 AUDIO
    TITLE "0:"
    INDEX 01 15:44:57
  TRACK 716 AUDIO
    TITLE "29:cjc024_6017"
    INDEX 01 15:45:20
  TRACK 717 AUDIO
    TITLE "0:"
    INDEX 01 15:49:31
  TRACK 718 AUDIO
    TITLE "30:cjc024_6018"
    INDEX 01 15:49:70
  TRACK 719 AUDIO
    TITLE "0:"
    INDEX 01 15:52:65
  TRACK 720 AUDIO
    TITLE "31:cjc024_6019"
    INDEX 01 15:53:13
  TRACK 721 AUDIO
    TITLE "0:"
    INDEX 01 15:56:08
  TRACK 722 AUDIO
    TITLE "28:cjc024_6020"
    INDEX 01 15:57:07
  TRACK 723 AUDIO
    TITLE "0:"
    INDEX 01 15:58:32
  TRACK 724 AUDIO
    TITLE "29:cjc024_6021"
    INDEX 01 15:58:69
  TRACK 725 AUDIO
    TITLE "0:"
    INDEX 01 16:00:37
  TRACK 726 AUDIO
    TITLE "30:cjc024_6022"
    INDEX 01 16:00:74
  TRACK 727 AUDIO
    TITLE "0:"
    INDEX 01 16:02:59
  TRACK 728 AUDIO
    TITLE "31:cjc024_6023"
    INDEX 01 16:03:12
  TRACK 729 AUDIO
    TITLE "0:"
    INDEX 01 16:04:74
  TRACK 730 AUDIO
    TITLE "28:cjc024_6024"
    INDEX 01 16:05:73
  TRACK 731 AUDIO
    TITLE "0:"
    INDEX 01 16:07:21
  TRACK 732 AUDIO
    TITLE "29:cjc024_6025"
    INDEX 01 16:07:60
  TRACK 733 AUDIO
    TITLE "0:"
    INDEX 01 16:09:61
  TRACK 734 AUDIO
    TITLE "30:cjc024_6026"
    INDEX 01 16:10:25
  TRACK 735 AUDIO
    TITLE "0:"
    INDEX 01 16:12:30
  TRACK 736 AUDIO
    TITLE "31:cjc024_6027"
    INDEX 01 16:12:58
  TRACK 737 AUDIO
    TITLE "0:"
    INDEX 01 16:14:60
  TRACK 738 AUDIO
    TITLE "28:cjc024_6028"
    INDEX 01 16:15:62
  TRACK 739 AUDIO
    TITLE "0:"
    INDEX 01 16:16:63
  TRACK 740 AUDIO
    TITLE "29:cjc024_6029"
    INDEX 01 16:17:27
  TRACK 741 AUDIO
    TITLE "0:"
    INDEX 01 16:19:01
  TRACK 742 AUDIO
    TITLE "30:cjc024_6030"
    INDEX 01 16:19:38
  TRACK 743 AUDIO
    TITLE "0:"
    INDEX 01 16:21:23
  TRACK 744 AUDIO
    TITLE "31:cjc024_6031"
    INDEX 01 16:21:51
  TRACK 745 AUDIO
    TITLE "0:"
    INDEX 01 16:23:38
  TRACK 746 AUDIO
    TITLE "28:cjc024_6032"
    INDEX 01 16:24:35
  TRACK 747 AUDIO
    TITLE "0:"
    INDEX 01 16:26:03
  TRACK 748 AUDIO
    TITLE "29:cjc024_6033"
    INDEX 01 16:26:40
  TRACK 749 AUDIO
    TITLE "0:"
    INDEX 01 16:29:13
  TRACK 750 AUDIO
    TITLE "30:cjc024_6034"
    INDEX 01 16:29:50
  TRACK 751 AUDIO
    TITLE "0:"
    INDEX 01 16:32:45
  TRACK 752 AUDIO
    TITLE "31:cjc024_6035"
    INDEX 01 16:32:72
  TRACK 753 AUDIO
    TITLE "0:"
    INDEX 01 16:35:63
  TRACK 754 AUDIO
    TITLE "28:cjc024_6036"
    INDEX 01 16:36:68
  TRACK 755 AUDIO
    TITLE "0:"
    INDEX 01 16:38:08
  TRACK 756 AUDIO
    TITLE "29:cjc024_6037"
    INDEX 01 16:38:43
  TRACK 757 AUDIO
    TITLE "0:"
    INDEX 01 16:41:00
  TRACK 758 AUDIO
    TITLE "30:cjc024_6038"
    INDEX 01 16:41:44
  TRACK 759 AUDIO
    TITLE "0:"
    INDEX 01 16:44:40
  TRACK 760 AUDIO
    TITLE "31:cjc024_6039"
    INDEX 01 16:44:63
  TRACK 761 AUDIO
    TITLE "0:"
    INDEX 01 16:47:60
  TRACK 762 AUDIO
    TITLE "28:cjc024_6040"
    INDEX 01 16:48:57
  TRACK 763 AUDIO
    TITLE "0:"
    INDEX 01 16:50:15
  TRACK 764 AUDIO
    TITLE "29:cjc024_6041"
    INDEX 01 16:50:52
  TRACK 765 AUDIO
    TITLE "0:"
    INDEX 01 16:52:69
  TRACK 766 AUDIO
    TITLE "30:cjc024_6042"
    INDEX 01 16:53:35
  TRACK 767 AUDIO
    TITLE "0:"
    INDEX 01 16:55:44
  TRACK 768 AUDIO
    TITLE "31:cjc024_6043"
    INDEX 01 16:56:02
  TRACK 769 AUDIO
    TITLE "0:"
    INDEX 01 16:58:13
  TRACK 770 AUDIO
    TITLE "28:cjc024_6044"
    INDEX 01 16:59:20
  TRACK 771 AUDIO
    TITLE "0:"
    INDEX 01 17:00:23
  TRACK 772 AUDIO
    TITLE "29:cjc024_6045"
    INDEX 01 17:00:66
  TRACK 773 AUDIO
    TITLE "0:"
    INDEX 01 17:05:22
  TRACK 774 AUDIO
    TITLE "30:cjc024_6046"
    INDEX 01 17:05:68
  TRACK 775 AUDIO
    TITLE "0:"
    INDEX 01 17:08:58
  TRACK 776 AUDIO
    TITLE "31:cjc024_6047"
    INDEX 01 17:09:07
  TRACK 777 AUDIO
    TITLE "0:"
    INDEX 01 17:11:72
  TRACK 778 AUDIO
    TITLE "28:cjc024_6048"
    INDEX 01 17:12:72
  TRACK 779 AUDIO
    TITLE "0:"
    INDEX 01 17:14:04
  TRACK 780 AUDIO
    TITLE "29:cjc024_6049"
    INDEX 01 17:14:41
  TRACK 781 AUDIO
    TITLE "0:"
    INDEX 01 17:16:05
  TRACK 782 AUDIO
    TITLE "30:cjc024_6050"
    INDEX 01 17:16:50
  TRACK 783 AUDIO
    TITLE "0:"
    INDEX 01 17:18:06
  TRACK 784 AUDIO
    TITLE "31:cjc024_6051"
    INDEX 01 17:18:29
  TRACK 785 AUDIO
    TITLE "0:"
    INDEX 01 17:19:60
  TRACK 786 AUDIO
    TITLE "28:cjc024_6052"
    INDEX 01 17:20:59
  TRACK 787 AUDIO
    TITLE "0:"
    INDEX 01 17:22:17
  TRACK 788 AUDIO
    TITLE "29:cjc024_6053"
    INDEX 01 17:22:52
  TRACK 789 AUDIO
    TITLE "0:"
    INDEX 01 17:25:68
  TRACK 790 AUDIO
    TITLE "30:cjc024_6054"
    INDEX 01 17:26:34
  TRACK 791 AUDIO
    TITLE "0:"
    INDEX 01 17:29:39
  TRACK 792 AUDIO
    TITLE "31:cjc024_6055"
    INDEX 01 17:29:62
  TRACK 793 AUDIO
    TITLE "0:"
    INDEX 01 17:32:64
  TRACK 794 AUDIO
    TITLE "28:cjc024_6056"
    INDEX 01 17:33:68
  TRACK 795 AUDIO
    TITLE "0:"
    INDEX 01 17:35:04
  TRACK 796 AUDIO
    TITLE "29:cjc024_6057"
    INDEX 01 17:35:41
  TRACK 797 AUDIO
    TITLE "0:"
    INDEX 01 17:37:21
  TRACK 798 AUDIO
    TITLE "30:cjc024_6058"
    INDEX 01 17:37:66
  TRACK 799 AUDIO
    TITLE "0:"
    INDEX 01 17:39:45
  TRACK 800 AUDIO
    TITLE "31:cjc024_6059"
    INDEX 01 17:39:68
  TRACK 801 AUDIO
    TITLE "0:"
    INDEX 01 17:41:50
